<?xml version="1.0" standalone="no"?>
<!DOCTYPE svg PUBLIC "-//W3C//DTD SVG 20010904//EN"
 "http://www.w3.org/TR/2001/REC-SVG-20010904/DTD/svg10.dtd">
<svg version="1.0" xmlns="http://www.w3.org/2000/svg"
 width="1536.000000pt" height="1024.000000pt" viewBox="0 0 1536.000000 1024.000000"
 preserveAspectRatio="xMidYMid meet">

<g transform="translate(0.000000,1024.000000) scale(0.100000,-0.100000)"
fill="#000000" stroke="none">
<path d="M10103 8164 c-3 -9 0 -20 8 -25 10 -6 10 -9 2 -9 -24 0 -13 -28 13
-34 24 -6 54 7 54 24 0 9 -52 34 -64 31 -5 -1 -4 5 4 13 9 11 9 16 1 16 -6 0
-14 -7 -18 -16z"/>
<path d="M9974 8057 c-14 -16 40 -71 79 -81 40 -10 30 -27 -33 -58 -89 -43
-99 -59 -49 -77 38 -13 52 -6 39 19 -16 29 -21 26 60 36 45 6 45 6 45 45 0 22
-8 48 -18 59 -9 11 -14 27 -10 36 5 13 3 14 -13 4 -21 -13 -74 1 -74 20 0 13
-12 12 -26 -3z"/>
<path d="M4850 7915 l-25 -15 25 5 c39 9 105 -16 105 -40 0 -11 4 -26 9 -34 5
-8 4 -16 -5 -22 -8 -5 -9 -9 -4 -9 12 0 75 37 75 44 0 18 -26 56 -39 58 -9 0
-20 2 -26 3 -5 2 -26 3 -45 4 -27 1 -31 4 -20 11 26 17 -21 12 -50 -5z"/>
<path d="M9882 7907 c-7 -8 -6 -18 2 -30 19 -24 36 -21 36 7 0 27 -23 41 -38
23z"/>
<path d="M9716 7884 c-8 -22 30 -91 55 -99 27 -9 38 3 46 47 6 40 -5 50 -64
61 -23 5 -33 2 -37 -9z"/>
<path d="M5078 7804 c5 -30 42 -57 66 -48 24 9 20 30 -10 53 -38 30 -63 28
-56 -5z"/>
<path d="M5326 7759 c-2 -8 -9 -29 -15 -46 -9 -29 -7 -35 12 -48 31 -22 52 1
43 48 -7 40 -33 69 -40 46z"/>
<path d="M4934 7752 c5 -8 76 -4 76 4 0 2 -18 4 -41 4 -22 0 -38 -4 -35 -8z"/>
<path d="M5030 7740 c0 -5 11 -10 24 -10 31 0 50 -22 34 -38 -18 -18 -3 -15
38 7 l36 20 -53 15 c-61 19 -79 20 -79 6z"/>
<path d="M9892 7729 l-32 -21 27 -24 28 -24 -20 -37 c-11 -20 -27 -43 -35 -52
-8 -8 -15 -19 -15 -25 0 -6 -8 -10 -16 -8 -9 1 -24 -10 -34 -24 -9 -15 -12
-23 -6 -20 6 4 21 0 33 -8 25 -18 103 -22 113 -6 4 6 -8 10 -29 10 -24 0 -36
5 -36 13 0 16 34 50 42 41 5 -5 60 47 100 94 15 19 15 21 -8 26 -36 9 -64 37
-64 63 0 28 -6 28 -48 2z"/>
<path d="M7638 7672 c-17 -19 -32 -122 -18 -122 5 0 8 -12 6 -27 -4 -39 10
-64 32 -56 9 4 20 11 24 17 19 27 2 186 -21 200 -5 3 -15 -2 -23 -12z"/>
<path d="M9252 7653 c2 -17 12 -32 26 -38 15 -7 22 -18 22 -38 0 -23 4 -28 16
-23 9 3 18 6 20 6 12 0 2 29 -13 34 -12 5 -14 9 -5 18 17 17 15 33 -2 19 -11
-9 -16 -6 -24 19 -14 39 -45 41 -40 3z"/>
<path d="M9638 7644 c-10 -21 -8 -28 8 -44 31 -31 56 -29 65 4 6 23 4 32 -9
42 -33 24 -53 24 -64 -2z"/>
<path d="M5925 7599 c-4 -6 -19 -7 -36 -4 -22 5 -28 3 -24 -7 8 -21 66 -54
108 -62 46 -9 48 4 8 44 -16 16 -26 32 -23 35 3 3 -2 5 -11 5 -9 0 -19 -5 -22
-11z"/>
<path d="M5254 7582 c-6 -4 -14 -15 -17 -26 -5 -12 -13 -16 -25 -11 -13 5 -14
4 -5 -6 10 -10 18 -10 38 -1 14 7 37 12 50 12 14 0 25 5 25 10 0 6 -9 10 -20
10 -11 0 -20 5 -20 10 0 12 -11 13 -26 2z"/>
<path d="M5420 7560 c0 -6 7 -24 15 -39 11 -23 19 -27 40 -23 21 4 26 9 21 26
-3 11 -6 27 -6 34 0 7 -14 12 -35 12 -19 0 -35 -5 -35 -10z"/>
<path d="M9282 7523 c-19 -13 -28 -14 -43 -5 -26 17 -29 15 -29 -13 0 -14 6
-25 13 -25 8 0 20 -11 27 -25 17 -32 67 -33 62 -2 -2 10 4 29 12 42 9 14 16
29 16 35 0 15 -32 11 -58 -7z"/>
<path d="M5165 7500 c-25 -5 -27 -7 -14 -15 9 -6 21 -20 28 -32 9 -17 21 -23
46 -23 44 0 53 16 25 45 -26 27 -45 33 -85 25z"/>
<path d="M5980 7480 c-6 -11 -15 -18 -21 -15 -22 14 -45 -6 -47 -40 -2 -30 1
-35 25 -40 15 -4 38 -10 49 -15 28 -11 44 5 44 46 0 39 -16 84 -29 84 -6 0
-15 -9 -21 -20z"/>
<path d="M9581 7484 c-21 -15 -22 -17 -5 -35 22 -24 57 -21 62 5 3 11 0 16 -7
12 -6 -4 -11 -1 -11 8 0 23 -15 27 -39 10z"/>
<path d="M9715 7490 c-3 -5 -1 -10 4 -10 6 0 11 5 11 10 0 6 -2 10 -4 10 -3 0
-8 -4 -11 -10z"/>
<path d="M5530 7435 c-9 -11 -9 -23 0 -50 13 -39 37 -46 63 -17 13 14 14 22 4
41 -16 31 -52 45 -67 26z"/>
<path d="M8696 7441 c-3 -5 1 -12 10 -15 8 -3 13 -2 9 3 -3 5 1 12 7 14 8 4 7
6 -4 6 -9 1 -19 -3 -22 -8z"/>
<path d="M5260 7426 c0 -3 11 -17 25 -32 32 -35 32 -42 -7 -59 l-33 -14 33 -1
c18 0 50 9 72 20 22 11 47 20 57 20 26 1 -98 70 -124 70 -13 0 -23 -2 -23 -4z"/>
<path d="M9265 7350 c-6 -20 -25 -28 -25 -11 0 4 -11 6 -25 3 -37 -7 -32 -36
10 -51 43 -15 69 -3 84 40 14 41 15 39 -13 39 -16 0 -27 -7 -31 -20z"/>
<path d="M7597 7343 c-3 -5 11 -9 31 -10 27 -2 33 0 22 7 -18 12 -47 13 -53 3z"/>
<path d="M8515 7340 c-3 -6 1 -7 9 -4 18 7 21 14 7 14 -6 0 -13 -4 -16 -10z"/>
<path d="M9558 7343 c-43 -10 -24 -58 35 -88 43 -22 47 -19 47 26 0 28 -4 39
-12 36 -7 -2 -22 3 -33 13 -11 9 -27 15 -37 13z"/>
<path d="M9803 7335 c-18 -8 -33 -18 -33 -22 0 -4 -14 -16 -31 -25 -42 -24
-30 -36 35 -33 43 2 53 0 49 -11 -6 -16 6 -18 27 -4 9 6 10 10 3 10 -6 0 -10
9 -8 20 2 11 0 22 -4 25 -5 2 -7 16 -6 30 2 14 3 25 2 25 -1 -1 -17 -7 -34
-15z"/>
<path d="M6045 7321 c-13 -10 -19 -26 -17 -43 4 -33 -2 -34 -36 -8 -33 26 -49
12 -30 -27 12 -25 19 -28 61 -28 66 -1 78 15 57 76 -15 45 -17 46 -35 30z"/>
<path d="M5620 7216 c0 -54 16 -68 42 -36 17 21 17 25 3 40 -8 9 -15 22 -15
28 0 7 -7 12 -15 12 -11 0 -15 -12 -15 -44z"/>
<path d="M9759 7191 c-46 -30 -88 -86 -66 -90 7 -1 35 -4 62 -6 39 -4 45 -3
27 5 -26 11 -65 46 -43 39 7 -3 27 8 43 23 17 15 40 28 52 28 21 1 21 1 2 15
-26 19 -25 20 -77 -14z"/>
<path d="M5388 7198 c9 -11 10 -18 2 -23 -6 -3 -7 -11 -4 -17 4 -6 -4 -19 -17
-30 l-24 -19 65 5 c36 3 76 8 90 10 14 2 34 5 45 5 30 1 6 16 -60 36 -33 10
-71 25 -85 34 -23 14 -24 14 -12 -1z"/>
<path d="M9241 7168 c-8 -13 -19 -18 -33 -15 -27 7 -65 -22 -60 -45 2 -10 11
-18 21 -18 9 0 26 -7 37 -15 32 -22 57 1 61 58 5 51 -7 66 -26 35z"/>
<path d="M6085 7112 c-4 -18 -18 -34 -41 -47 l-35 -19 36 -20 c19 -11 35 -26
35 -33 0 -15 5 -16 28 -4 9 5 24 12 33 14 23 7 29 39 13 76 -7 17 -13 34 -13
38 1 8 -23 23 -38 23 -6 0 -14 -13 -18 -28z"/>
<path d="M9410 7135 c0 -19 31 -74 55 -97 37 -37 55 -36 55 3 0 47 -16 69 -51
69 -17 0 -32 6 -35 15 -6 14 -24 21 -24 10z"/>
<path d="M5385 7083 c-30 -7 -43 -23 -18 -23 11 0 32 -9 46 -21 34 -26 96 -37
107 -18 23 36 -67 78 -135 62z"/>
<path d="M5270 7060 c0 -5 4 -10 9 -10 6 0 13 5 16 10 3 6 -1 10 -9 10 -9 0
-16 -4 -16 -10z"/>
<path d="M5752 6965 c2 -46 6 -65 16 -65 22 0 62 47 62 73 0 29 -29 57 -58 57
-20 0 -21 -5 -20 -65z"/>
<path d="M9222 6958 l-42 -43 -32 18 c-35 20 -45 15 -53 -28 -5 -27 -2 -32 34
-51 66 -36 132 -4 110 53 -10 27 -7 36 24 71 36 39 3 23 -41 -20z"/>
<path d="M5453 6943 c9 -2 23 -2 30 0 6 3 -1 5 -18 5 -16 0 -22 -2 -12 -5z"/>
<path d="M9817 6896 c-31 -25 -27 -36 15 -36 23 0 28 4 28 24 0 35 -11 38 -43
12z"/>
<path d="M6174 6876 c-6 -6 -13 -19 -17 -28 -3 -10 -12 -15 -20 -12 -9 3 -17
-3 -20 -16 -3 -12 -10 -19 -16 -16 -5 4 -12 2 -15 -3 -11 -17 25 -34 72 -33
46 0 82 25 82 56 0 22 -55 64 -66 52z"/>
<path d="M9735 6808 c-9 -23 34 -80 59 -76 10 2 30 20 43 42 l25 39 -39 -8
c-21 -4 -44 -11 -50 -17 -9 -8 -15 -4 -22 13 -8 20 -10 21 -16 7z"/>
<path d="M5457 6691 c-2 -10 4 -28 13 -41 17 -23 19 -23 36 -6 10 11 13 20 7
24 -5 4 -12 15 -16 25 -8 23 -33 22 -40 -2z"/>
<path d="M9670 6700 c0 -12 28 -25 36 -17 3 3 -4 10 -15 17 -15 7 -21 7 -21 0z"/>
<path d="M9605 6690 c3 -5 8 -10 11 -10 2 0 4 5 4 10 0 6 -5 10 -11 10 -5 0
-7 -4 -4 -10z"/>
<path d="M9738 6673 c-27 -4 -44 -28 -28 -38 17 -11 10 -30 -15 -41 -20 -10
-29 -8 -59 13 l-36 24 0 -23 c0 -13 7 -34 16 -46 9 -13 14 -34 11 -48 l-4 -25
21 20 c12 12 30 21 39 21 9 0 23 13 32 30 8 16 24 34 35 40 11 6 20 21 20 33
0 13 5 28 12 35 13 13 10 13 -44 5z"/>
<path d="M5590 6655 c0 -8 4 -15 10 -15 5 0 7 7 4 15 -4 8 -8 15 -10 15 -2 0
-4 -7 -4 -15z"/>
<path d="M10470 6641 c0 -25 6 -27 13 -6 4 8 2 17 -3 20 -6 4 -10 -3 -10 -14z"/>
<path d="M5552 6618 c2 -6 14 -18 26 -26 20 -13 22 -13 22 7 0 12 -4 20 -9 16
-5 -3 -12 -1 -16 5 -9 14 -28 13 -23 -2z"/>
<path d="M6275 6606 c-10 -16 -18 -42 -17 -59 2 -17 -3 -34 -10 -38 -10 -6
-10 -11 -2 -19 9 -9 17 -8 33 2 28 17 33 42 23 98 l-8 45 -19 -29z"/>
<path d="M9472 6607 c-9 -11 -42 -91 -42 -102 0 -2 12 -6 26 -9 21 -6 24 -9
14 -21 -16 -20 12 -65 40 -65 11 0 20 -7 20 -15 0 -12 13 -15 63 -14 34 0 57
3 50 5 -20 9 20 88 42 84 3 -1 11 1 18 3 18 7 -33 2 -68 -7 -16 -4 -40 -12
-52 -18 -12 -6 -28 -8 -36 -5 -18 7 -27 80 -15 122 4 16 4 32 0 36 -17 16 -50
19 -60 6z"/>
<path d="M5418 6593 c7 -3 16 -2 19 1 4 3 -2 6 -13 5 -11 0 -14 -3 -6 -6z"/>
<path d="M5670 6550 c0 -5 5 -10 10 -10 6 0 10 5 10 10 0 6 -4 10 -10 10 -5 0
-10 -4 -10 -10z"/>
<path d="M4897 6529 c8 -8 16 -8 30 0 16 9 14 10 -11 11 -22 0 -27 -3 -19 -11z"/>
<path d="M5786 6485 c-8 -21 23 -62 53 -70 17 -4 31 1 48 16 22 22 23 24 6 40
-10 9 -37 20 -59 24 -33 5 -43 3 -48 -10z"/>
<path d="M6150 6481 c0 -4 12 -14 28 -22 15 -7 29 -15 33 -16 3 -2 5 7 5 20 0
20 -5 24 -33 25 -18 1 -33 -2 -33 -7z"/>
<path d="M10370 6480 c0 -5 -7 -10 -15 -10 -8 0 -15 -4 -15 -9 0 -10 41 -23
49 -16 2 3 -1 5 -7 5 -7 0 -12 5 -12 11 0 6 9 8 20 4 11 -3 20 -4 20 -1 0 3
-9 10 -20 16 -14 7 -20 7 -20 0z"/>
<path d="M9316 6465 c-3 -8 -1 -15 4 -15 6 0 10 7 10 15 0 8 -2 15 -4 15 -2 0
-6 -7 -10 -15z"/>
<path d="M6366 6441 c-17 -18 -24 -31 -17 -35 6 -4 22 5 36 21 43 49 27 62
-19 14z"/>
<path d="M5499 6401 c9 -6 10 -10 2 -12 -9 -3 -9 -18 0 -59 20 -95 52 -121 97
-82 11 10 37 27 56 37 20 11 36 23 36 27 0 5 5 8 11 8 6 0 23 10 37 21 25 20
25 21 5 17 -12 -3 -24 -1 -26 6 -3 7 -11 4 -23 -8 -17 -17 -17 -18 -1 -13 9 4
17 2 17 -3 0 -6 -3 -10 -7 -11 -41 -4 -63 -4 -63 2 0 4 -9 9 -20 12 -22 6 -26
-3 -10 -19 12 -12 3 -44 -11 -44 -5 0 -12 7 -16 16 -3 9 -17 28 -31 43 -13 14
-28 36 -33 49 -5 12 -14 22 -21 22 -10 0 -10 -2 1 -9z"/>
<path d="M5160 6371 c0 -5 7 -12 16 -15 14 -5 15 -4 4 9 -14 17 -20 19 -20 6z"/>
<path d="M5140 6311 c0 -5 7 -12 16 -15 14 -5 15 -4 4 9 -14 17 -20 19 -20 6z"/>
<path d="M10145 6190 c-4 -6 3 -10 14 -10 25 0 27 6 6 13 -8 4 -17 2 -20 -3z"/>
<path d="M5430 6178 c0 -11 8 -18 20 -18 11 0 20 5 20 11 0 5 -5 7 -11 3 -6
-3 -15 0 -20 7 -7 11 -9 10 -9 -3z"/>
<path d="M10270 6130 c-8 -5 -11 -12 -7 -16 4 -4 15 0 24 9 18 18 8 23 -17 7z"/>
<path d="M9897 6053 c-15 -15 -5 -32 24 -42 40 -14 39 -14 39 7 0 32 -43 56
-63 35z"/>
<path d="M10220 6039 c0 -5 5 -7 10 -4 6 3 10 8 10 11 0 2 -4 4 -10 4 -5 0
-10 -5 -10 -11z"/>
<path d="M6223 6020 c14 -11 36 -37 48 -58 13 -20 35 -52 51 -70 27 -31 54
-107 63 -172 2 -18 6 -35 9 -37 9 -10 28 50 33 107 4 51 2 59 -33 111 -37 55
-56 70 -142 116 -53 28 -63 29 -29 3z"/>
<path d="M4600 6026 c0 -2 9 -6 20 -9 11 -3 20 -1 20 4 0 5 -9 9 -20 9 -11 0
-20 -2 -20 -4z"/>
<path d="M11208 6023 c7 -3 16 -2 19 1 4 3 -2 6 -13 5 -11 0 -14 -3 -6 -6z"/>
<path d="M9130 6012 c0 -10 61 -23 69 -16 7 7 -2 11 -36 19 -20 4 -33 3 -33
-3z"/>
<path d="M4577 5992 c-9 -10 -17 -29 -17 -42 0 -20 -2 -21 -17 -9 -15 13 -16
12 -11 -8 4 -14 2 -23 -5 -23 -8 0 -7 -3 1 -9 8 -4 13 -11 13 -15 -4 -28 2
-34 38 -38 l39 -3 7 50 c13 98 12 110 -11 113 -11 2 -28 -6 -37 -16z"/>
<path d="M4940 6000 c0 -5 7 -10 16 -10 11 0 14 -5 9 -17 -5 -14 -4 -15 6 -6
10 10 9 15 -1 28 -14 17 -30 20 -30 5z"/>
<path d="M11185 5988 c5 -43 17 -58 44 -58 33 0 67 23 57 38 -4 7 -20 12 -36
12 -16 0 -35 7 -44 15 -20 20 -25 19 -21 -7z"/>
<path d="M4170 5969 c0 -5 -4 -8 -9 -5 -5 3 -11 -3 -14 -14 -6 -23 11 -31 38
-17 29 14 29 15 12 32 -18 18 -27 19 -27 4z"/>
<path d="M6090 5963 c1 -4 24 -28 51 -53 28 -25 64 -57 81 -72 16 -16 33 -28
38 -28 5 0 14 -8 20 -17 8 -14 9 -5 6 36 -4 39 -13 65 -34 95 -29 40 -31 41
-96 44 -36 2 -66 -1 -66 -5z"/>
<path d="M8955 5962 c-46 -9 -92 -72 -143 -196 -12 -31 -22 -44 -27 -36 -14
22 -8 84 14 133 20 46 20 47 1 47 -12 0 -26 -13 -37 -32 -25 -47 -29 -211 -9
-308 23 -111 46 -135 151 -160 28 -7 58 -15 68 -17 14 -4 16 -1 10 13 -8 22
-35 51 -40 44 -7 -10 -59 33 -82 67 -12 19 -26 60 -31 91 -9 54 -4 146 8 167
4 6 8 21 10 35 5 38 11 38 42 1 l28 -35 7 32 c8 41 54 76 131 102 76 26 101
18 51 -16 -23 -15 -46 -44 -62 -78 -27 -57 -34 -121 -12 -113 6 2 12 10 12 18
0 7 9 15 20 17 11 2 24 8 30 13 16 16 32 10 63 -22 32 -32 52 -32 52 1 0 20
-17 45 -55 82 -15 14 -28 18 -52 13 -26 -5 -33 -2 -33 10 0 10 9 15 28 15 38
0 60 19 64 55 l3 30 -92 3 c-63 2 -93 7 -95 15 -2 7 -12 11 -23 9z"/>
<path d="M10771 5902 c-16 -30 -14 -50 10 -89 20 -32 25 -35 57 -29 20 3 42
11 49 19 11 11 10 17 -7 35 -11 11 -20 26 -20 32 0 5 -14 10 -31 10 -25 0 -29
-3 -20 -13 6 -8 8 -17 4 -20 -3 -4 -12 1 -19 11 -8 11 -9 19 -2 23 7 5 7 12 0
24 -9 17 -10 17 -21 -3z m96 -68 c-3 -3 -12 -4 -19 -1 -8 3 -5 6 6 6 11 1 17
-2 13 -5z"/>
<path d="M6040 5885 c-7 -8 -9 -15 -4 -15 5 -1 -2 -7 -15 -14 -15 -9 -20 -16
-12 -20 7 -5 1 -17 -19 -37 -33 -34 -36 -47 -17 -74 18 -24 36 -12 30 19 -5
24 -3 25 48 28 46 3 54 6 54 23 0 11 4 23 9 26 14 11 0 34 -32 58 -26 18 -31
19 -42 6z"/>
<path d="M6485 5868 c-4 -20 -1 -71 5 -114 16 -106 14 -187 -6 -226 -22 -42
-97 -121 -153 -162 -73 -52 -219 -104 -329 -118 l-95 -12 37 -13 c64 -22 139
-10 354 56 38 11 39 7 11 -38 -16 -27 -18 -36 -7 -42 7 -5 14 -4 16 1 2 5 10
6 19 3 12 -5 14 -1 9 15 -7 21 13 65 39 87 27 23 83 126 118 215 33 85 37 104
36 180 -1 88 -14 151 -35 184 -12 17 -13 15 -19 -16z"/>
<path d="M10176 5866 c7 -18 -53 -75 -78 -76 -10 0 -18 4 -18 8 0 4 -16 15
-35 24 -38 17 -42 13 -20 -16 20 -26 20 -136 0 -183 -8 -19 -15 -39 -15 -44 0
-19 101 43 153 94 43 42 58 65 71 111 21 70 16 91 -19 82 -14 -4 -25 -2 -25 4
0 5 -4 10 -10 10 -5 0 -7 -6 -4 -14z"/>
<path d="M10060 5840 c0 -5 5 -10 11 -10 5 0 7 5 4 10 -3 6 -8 10 -11 10 -2 0
-4 -4 -4 -10z"/>
<path d="M5272 5793 c-33 -20 -48 -23 -70 -16 -37 12 -75 5 -68 -12 3 -8 0
-17 -5 -21 -6 -3 -8 -15 -6 -25 4 -16 1 -19 -21 -17 -23 3 -27 0 -24 -22 5
-45 81 -106 161 -130 75 -22 91 -20 91 9 0 9 9 37 21 60 17 36 20 54 14 105
-6 54 -27 98 -44 95 -3 -1 -25 -12 -49 -26z"/>
<path d="M9243 5768 c-6 -8 -7 -25 -1 -46 7 -28 11 -32 23 -22 19 16 19 54 1
69 -10 8 -16 8 -23 -1z"/>
<path d="M10340 5743 c0 -37 16 -94 33 -117 13 -17 14 -17 31 -1 14 14 15 20
4 26 -10 7 -9 9 3 9 23 0 29 22 13 45 -11 15 -14 15 -14 4 0 -9 -6 -16 -14
-16 -8 0 -12 6 -9 14 3 7 -1 13 -10 13 -10 0 -13 8 -9 25 3 18 0 25 -12 25
-11 0 -16 -9 -16 -27z"/>
<path d="M4310 5745 c7 -9 15 -13 17 -11 7 7 -7 26 -19 26 -6 0 -6 -6 2 -15z"/>
<path d="M4887 5730 c-3 -13 0 -20 9 -20 8 0 14 -5 14 -10 0 -13 83 -50 111
-50 26 0 24 13 -7 49 -18 22 -35 31 -56 31 -16 0 -38 4 -48 10 -14 7 -19 5
-23 -10z"/>
<path d="M9307 5736 c-3 -8 -3 -23 0 -34 3 -14 -7 -30 -41 -58 -51 -42 -56
-54 -26 -54 34 0 87 27 104 52 14 22 14 28 -1 66 -17 44 -27 52 -36 28z"/>
<path d="M4302 5702 c2 -17 11 -30 23 -34 18 -5 17 -6 -5 -8 -25 -2 -25 -2 5
-15 l30 -14 -33 -1 -33 0 18 -25 c10 -13 22 -25 27 -25 18 0 106 73 106 89 0
21 -62 54 -108 57 -30 2 -32 0 -30 -24z"/>
<path d="M5863 5698 c3 -18 9 -49 13 -68 7 -34 6 -35 -13 -17 -25 22 -45 22
-41 0 5 -26 47 -43 108 -43 88 0 88 8 4 89 -75 72 -76 72 -71 39z"/>
<path d="M9420 5692 c-7 -28 -28 -55 -72 -96 -96 -87 -98 -88 -138 -93 -30 -4
-37 -9 -33 -23 4 -14 -3 -19 -36 -25 -23 -4 -43 -10 -45 -14 -3 -4 -22 -8 -42
-9 -21 -2 -41 -5 -44 -9 -12 -13 199 11 255 28 107 34 185 131 185 229 0 59
-15 65 -30 12z"/>
<path d="M10978 5688 c-7 -7 -20 -14 -28 -16 -31 -7 -31 -21 -1 -55 35 -39 88
-64 88 -42 0 8 -7 11 -16 8 -13 -5 -14 -3 -3 8 10 10 19 11 42 2 28 -11 29
-10 19 9 -7 14 -17 18 -32 14 -13 -3 -25 1 -33 12 -16 20 -18 52 -4 52 6 0 10
5 10 10 0 14 -26 12 -42 -2z"/>
<path d="M8991 5650 c17 -57 31 -80 49 -80 30 0 29 11 -1 45 -17 18 -37 41
-44 51 -13 17 -14 15 -4 -16z"/>
<path d="M11033 5653 c-15 -5 -17 -23 -4 -23 5 0 11 7 15 15 3 8 4 15 3 14 -1
0 -8 -3 -14 -6z"/>
<path d="M8661 5623 c-1 -12 4 -25 9 -28 12 -7 12 2 0 30 -8 19 -9 19 -9 -2z"/>
<path d="M9472 5578 c-19 -19 -14 -29 8 -16 20 13 27 28 12 28 -4 0 -13 -5
-20 -12z"/>
<path d="M9087 5573 c-12 -12 -7 -22 8 -17 8 4 15 10 15 15 0 11 -14 12 -23 2z"/>
<path d="M4673 5543 c-31 -6 -29 -15 8 -37 17 -10 28 -24 25 -31 -2 -7 4 -22
15 -34 11 -12 25 -35 31 -51 5 -17 13 -30 17 -30 14 0 51 78 60 123 7 42 6 46
-13 51 -37 9 -120 14 -143 9z m92 -123 c3 -5 1 -10 -4 -10 -6 0 -11 5 -11 10
0 6 2 10 4 10 3 0 8 -4 11 -10z"/>
<path d="M8376 5537 c3 -10 9 -15 12 -12 3 3 0 11 -7 18 -10 9 -11 8 -5 -6z"/>
<path d="M5795 5530 c-3 -5 -1 -10 6 -10 7 0 10 -3 6 -6 -6 -6 22 -42 61 -80
13 -13 44 -30 69 -38 58 -20 181 -21 206 -2 17 13 16 15 -15 21 -116 23 -212
67 -206 95 2 7 -13 13 -37 15 -22 3 -50 7 -62 10 -12 3 -25 1 -28 -5z"/>
<path d="M8388 5507 c-7 -8 -19 -12 -27 -9 -10 3 -12 0 -8 -12 7 -18 -26 -80
-36 -70 -4 4 -9 -1 -13 -10 -3 -9 -13 -16 -21 -16 -9 0 -12 -6 -8 -19 7 -22
-23 -34 -50 -18 -13 7 -16 6 -11 -2 4 -6 1 -11 -8 -11 -9 0 -16 7 -16 16 0 8
-5 12 -11 9 -16 -11 17 -41 69 -63 56 -24 177 -38 187 -23 3 6 -1 21 -9 33
-24 34 -19 46 23 58 66 18 67 30 6 93 -44 47 -56 55 -67 44z"/>
<path d="M10563 5513 c-30 -6 -31 -47 -2 -108 24 -52 39 -59 32 -15 -3 21 0
30 9 28 7 -2 14 7 16 20 3 18 8 21 24 16 17 -5 20 -3 15 10 -4 11 -1 16 11 17
14 0 14 2 -3 9 -14 6 -15 9 -5 10 10 1 9 4 -5 10 -21 9 -55 10 -92 3z"/>
<path d="M5247 5457 c-3 -8 -22 -18 -43 -22 -21 -3 -49 -16 -63 -27 -25 -20
-25 -20 -3 -13 15 4 22 3 20 -6 -2 -6 7 -12 19 -14 24 -2 45 -15 25 -15 -21 0
-13 -19 10 -22 25 -4 37 -28 13 -28 -9 0 -13 -5 -10 -11 10 -16 12 -69 3 -69
-4 0 -8 -4 -8 -10 0 -5 9 -10 21 -10 11 0 17 -4 14 -10 -4 -6 -1 -17 5 -25 14
-16 50 -20 50 -6 0 5 9 7 20 4 11 -3 20 -9 20 -14 0 -5 5 -9 10 -9 6 0 10 7
10 15 0 8 -9 15 -20 15 -29 0 -25 10 23 61 l44 45 -33 38 c-18 21 -35 54 -39
75 -8 50 -16 60 -52 67 -21 4 -32 2 -36 -9z"/>
<path d="M9908 5453 c6 -2 18 -2 25 0 6 3 1 5 -13 5 -14 0 -19 -2 -12 -5z"/>
<path d="M6795 5430 c-16 -7 -11 -9 20 -9 29 -1 36 2 25 9 -17 11 -19 11 -45
0z"/>
<path d="M9947 5428 c-2 -7 -3 -26 -1 -42 2 -22 -2 -29 -18 -34 -19 -5 -17 -7
13 -21 20 -9 41 -31 51 -50 17 -34 44 -58 55 -48 3 3 -5 16 -16 29 -26 27 -24
53 4 53 14 0 20 -6 19 -22 0 -19 5 -23 27 -23 48 0 59 8 48 38 -7 18 -6 28 3
34 9 7 10 11 2 14 -7 3 -10 14 -7 25 5 17 2 19 -20 14 -22 -6 -27 -3 -33 19
-6 24 -10 26 -64 26 -37 0 -60 -4 -63 -12z"/>
<path d="M6845 5380 c-19 -12 -38 -17 -57 -13 -35 7 -38 -14 -3 -23 40 -10 75
-59 75 -105 0 -34 -2 -38 -17 -30 -71 38 -127 30 -138 -20 -4 -15 -13 -33 -21
-40 -8 -6 -14 -16 -14 -22 0 -5 -18 -29 -40 -53 -31 -34 -39 -50 -36 -73 4
-37 54 -84 72 -67 6 6 10 14 8 17 -1 3 6 20 16 37 20 32 43 41 55 22 5 -8 11
-7 21 1 8 7 33 12 55 11 33 -2 40 1 37 16 -1 9 6 29 16 44 10 16 16 34 13 42
-4 10 -1 13 7 10 8 -3 17 -1 21 5 3 6 1 11 -4 11 -19 0 -12 17 9 23 31 8 34
33 9 74 -13 21 -23 42 -21 46 1 4 -12 14 -30 22 l-33 13 39 7 c30 6 35 10 22
17 -9 5 -16 15 -16 23 0 23 -15 25 -45 5z"/>
<path d="M8226 5375 c4 -8 12 -15 20 -15 19 0 18 16 -2 24 -22 9 -24 8 -18 -9z"/>
<path d="M6005 5343 c-51 -5 -90 -23 -73 -35 9 -5 5 -8 -12 -9 -14 0 -19 -3
-12 -6 13 -5 137 30 162 47 16 11 18 10 -65 3z"/>
<path d="M7021 5338 c-14 -5 -31 -18 -39 -29 -9 -13 -21 -19 -33 -16 -11 3
-16 1 -13 -5 3 -5 17 -7 30 -4 20 5 26 2 34 -19 7 -18 17 -25 35 -25 18 0 38
-13 62 -40 37 -41 68 -54 56 -23 -5 13 -2 15 18 9 13 -3 53 -9 89 -11 52 -4
60 -3 40 5 -35 16 -36 18 -9 46 l24 26 -30 -8 c-16 -3 -37 -13 -46 -20 -18
-16 -89 -19 -89 -4 0 6 8 13 18 16 9 3 37 15 62 26 l45 21 -28 10 c-23 7 -28
14 -24 33 4 21 2 23 -12 12 -9 -7 -28 -25 -42 -40 -33 -34 -100 -55 -131 -41
l-23 11 27 12 c18 9 25 17 19 24 -5 6 -10 18 -12 27 -3 13 -9 15 -28 7z"/>
<path d="M8610 5303 c0 -12 8 -24 18 -27 9 -3 32 -19 51 -35 19 -17 38 -28 42
-25 4 2 9 -1 11 -8 3 -9 58 -20 58 -11 0 2 -31 18 -69 37 -38 19 -78 48 -90
63 -19 26 -20 27 -21 6z"/>
<path d="M9535 5285 c-17 -7 -64 -18 -104 -24 -41 -5 -78 -14 -83 -19 -14 -14
19 -72 40 -72 10 0 23 5 30 12 7 7 12 9 12 4 0 -4 12 2 26 13 15 12 33 21 40
21 25 0 84 44 79 59 -4 9 0 11 10 7 9 -3 13 -2 10 4 -8 13 -23 12 -60 -5z"/>
<path d="M9890 5260 c0 -5 7 -7 15 -4 8 4 15 8 15 10 0 2 -7 4 -15 4 -8 0 -15
-4 -15 -10z"/>
<path d="M10070 5236 c-5 -13 -15 -26 -22 -29 -11 -4 -11 -6 0 -6 7 -1 10 -5
7 -11 -3 -5 2 -10 12 -10 12 0 14 -3 6 -8 -8 -5 -3 -11 13 -19 l25 -12 -20 35
c-20 34 -20 35 -2 29 16 -5 18 -2 14 15 -3 11 -10 20 -17 20 -6 0 -4 5 4 10
10 7 11 10 2 10 -7 0 -17 -11 -22 -24z"/>
<path d="M5415 5228 c-53 -39 -59 -63 -20 -78 14 -5 25 -16 25 -25 0 -19 14
-19 34 0 13 13 15 13 18 -5 2 -12 6 -19 9 -18 3 2 14 -4 23 -12 28 -22 48 -22
34 0 -6 10 -17 16 -23 13 -7 -2 -15 3 -18 11 -4 11 -1 13 10 9 13 -5 13 -3 4
15 -6 11 -11 37 -11 57 0 29 -5 37 -26 45 -31 12 -23 14 -59 -12z"/>
<path d="M7380 5192 c-25 -9 -47 -17 -48 -18 -6 -4 41 -63 53 -68 7 -2 12 3
11 12 -1 12 8 18 27 20 27 3 28 4 10 18 -11 8 -14 17 -8 21 12 10 18 33 8 32
-5 -1 -28 -9 -53 -17z"/>
<path d="M8547 5166 c-3 -7 -27 -23 -54 -36 -26 -12 -51 -28 -55 -35 -4 -7
-27 -13 -50 -14 -24 -1 -49 -3 -55 -3 -16 -2 -17 -18 -2 -18 5 0 8 -4 4 -9 -3
-5 10 -9 30 -8 19 1 35 4 35 7 0 9 70 9 70 -1 0 -5 4 -9 9 -9 5 0 7 8 4 19 -6
23 64 84 90 77 23 -6 22 16 -2 31 -15 10 -20 9 -24 -1z"/>
<path d="M6930 5156 c0 -2 7 -7 16 -10 8 -3 12 -2 9 4 -6 10 -25 14 -25 6z"/>
<path d="M8749 5123 c-66 -4 -66 -4 -82 -41 -26 -61 -30 -116 -13 -175 18 -63
42 -89 74 -80 25 6 29 18 7 27 -21 8 -19 29 3 22 12 -4 29 7 57 39 22 25 45
45 52 45 6 0 9 9 6 20 -4 16 0 20 21 20 39 0 35 40 -10 90 -20 22 -39 39 -43
38 -3 -1 -36 -3 -72 -5z m-39 -273 c0 -5 -2 -10 -4 -10 -3 0 -8 5 -11 10 -3 6
-1 10 4 10 6 0 11 -4 11 -10z"/>
<path d="M8605 5110 c-8 -13 5 -13 25 0 13 8 13 10 -2 10 -9 0 -20 -4 -23 -10z"/>
<path d="M6990 5071 c0 -21 35 -34 97 -35 37 -1 68 -6 70 -12 2 -6 24 -9 57
-6 33 3 56 0 60 -7 4 -6 18 -11 31 -11 13 0 26 -4 29 -9 3 -4 29 -7 58 -5 29
1 165 5 302 9 138 3 253 8 256 10 3 2 40 5 81 5 92 2 116 8 124 27 3 9 4 17 3
18 -2 1 -68 -3 -148 -11 -153 -13 -741 -13 -794 1 -21 6 -27 5 -22 -4 4 -6 3
-11 -3 -11 -5 0 -11 5 -13 12 -2 6 -24 13 -49 15 -24 2 -57 8 -73 13 -36 12
-66 13 -66 1z"/>
<path d="M8550 5050 c0 -5 7 -10 15 -10 8 0 15 5 15 10 0 6 -7 10 -15 10 -8 0
-15 -4 -15 -10z"/>
<path d="M9407 5006 c-5 -13 1 -16 28 -16 27 0 35 -4 35 -17 0 -10 11 -30 25
-45 24 -28 49 -29 59 -2 3 8 15 14 26 14 11 0 20 3 20 6 0 16 -32 32 -91 47
-36 9 -73 19 -81 22 -9 4 -18 0 -21 -9z"/>
<path d="M7320 4955 c0 -10 10 -15 32 -15 30 0 31 1 12 15 -25 19 -44 19 -44
0z"/>
<path d="M10231 4962 c-1 -7 -5 -10 -11 -7 -5 3 -10 -1 -10 -9 0 -8 5 -18 10
-21 12 -7 24 19 17 37 -4 10 -6 10 -6 0z"/>
<path d="M6402 4910 c-19 -8 -21 -13 -12 -30 10 -18 14 -19 27 -9 10 9 11 15
4 17 -8 3 -5 9 6 18 21 15 9 17 -25 4z"/>
<path d="M3547 4606 c-144 -52 -329 -221 -551 -504 -66 -85 -92 -112 -105
-107 -218 87 -325 109 -491 102 -178 -7 -309 -47 -443 -133 -85 -55 -219 -188
-235 -232 -10 -30 -10 -31 7 -22 10 5 37 32 60 59 59 70 176 155 284 206 143
67 198 79 367 79 128 -1 156 -4 233 -27 71 -22 178 -67 195 -82 9 -8 -239
-359 -341 -484 -122 -150 -276 -276 -365 -301 -150 -41 -262 48 -262 208 0 65
40 161 84 201 14 14 26 28 26 33 0 4 -20 8 -45 8 -118 0 -215 -193 -171 -342
55 -191 324 -238 562 -98 33 20 111 87 179 155 131 130 239 270 421 542 10 15
15 14 55 -9 24 -14 80 -46 124 -71 44 -26 85 -50 91 -54 8 -6 3 -43 -17 -133
-55 -241 -60 -364 -17 -475 27 -72 68 -112 136 -131 61 -18 116 -14 181 12 46
18 57 40 14 29 -71 -19 -90 -21 -120 -13 -43 11 -81 63 -93 128 -21 112 -10
307 27 481 16 76 16 77 54 88 40 12 53 31 22 31 -41 1 -45 13 -28 81 28 111
134 425 168 501 71 154 81 174 109 215 25 38 27 43 12 57 -19 19 -75 20 -127
2z m-7 -118 c-93 -158 -197 -403 -259 -605 -18 -57 -34 -103 -37 -103 -19 0
-148 77 -188 113 l-49 43 28 44 c62 98 231 314 308 394 72 73 194 166 219 166
5 0 -5 -24 -22 -52z"/>
<path d="M12043 4515 c-93 -40 -216 -200 -324 -420 -80 -165 -120 -271 -163
-435 l-25 -95 -89 -85 c-105 -102 -190 -150 -264 -150 -38 0 -54 5 -73 24 -28
28 -40 80 -28 125 7 29 16 36 69 56 128 48 218 113 254 186 26 51 25 82 -4
116 -22 25 -30 28 -84 27 -136 -3 -277 -126 -341 -297 -38 -104 -24 -194 39
-250 96 -88 243 -55 420 94 l85 71 7 -61 c8 -69 31 -125 62 -146 11 -9 43 -15
71 -15 59 0 100 23 188 108 l57 56 0 -37 c0 -29 8 -46 34 -75 32 -34 39 -37
88 -37 66 1 107 24 199 112 l66 64 0 -53 c-1 -65 23 -111 71 -134 90 -42 218
43 364 244 33 45 61 82 63 82 1 0 26 -34 54 -75 l52 -75 -58 -26 c-126 -57
-148 -69 -189 -108 -100 -96 -54 -205 90 -214 83 -5 151 17 211 70 76 67 98
128 82 229 l-8 46 63 23 c88 33 189 84 226 115 64 54 24 63 -47 11 -45 -34
-99 -58 -208 -96 l-52 -19 -57 82 c-70 100 -89 144 -80 191 19 100 150 163
211 101 36 -35 29 -93 -17 -142 l-21 -23 27 0 c58 0 96 47 96 117 0 52 -19 76
-82 103 -41 17 -63 21 -103 16 -72 -8 -153 -53 -189 -104 -28 -39 -31 -51 -31
-120 l0 -78 -68 -86 c-90 -116 -155 -181 -205 -207 -49 -25 -56 -26 -76 -5
-36 35 -16 108 81 301 63 124 63 143 -3 143 -23 0 -34 5 -34 15 0 32 -54 75
-106 84 -147 28 -307 -89 -409 -297 -69 -142 -247 -295 -281 -241 -29 48 -21
174 22 323 25 88 26 90 130 201 107 115 230 266 297 368 88 133 120 254 78
296 -25 25 -88 28 -138 6z m107 -72 c0 -78 -109 -261 -269 -453 -90 -108 -141
-163 -141 -151 0 20 91 236 131 310 98 182 215 331 259 331 16 0 20 -7 20 -37z
m-799 -633 c10 -6 19 -21 19 -35 0 -54 -119 -168 -215 -204 -68 -26 -69 -11
-10 84 45 74 108 135 156 154 31 13 27 13 50 1z m1044 -27 c31 -34 31 -36 -2
-92 -91 -157 -193 -282 -272 -333 -53 -33 -76 -35 -91 -9 -29 56 0 169 71 275
107 161 230 227 294 159z m519 -405 c20 -76 -18 -177 -82 -222 -21 -14 -58
-29 -84 -32 -58 -8 -88 17 -88 74 0 71 57 128 179 178 69 29 67 29 75 2z"/>
<path d="M10963 4494 c-19 -8 -16 -25 12 -86 45 -96 29 -227 -52 -438 -48
-128 -99 -227 -170 -335 -132 -199 -282 -356 -403 -419 -101 -53 -142 -45
-156 29 -20 110 86 456 276 900 81 187 99 248 84 273 -16 24 -55 36 -97 28
-39 -7 -190 -127 -372 -296 -106 -98 -166 -143 -211 -161 -23 -8 -25 -12 -14
-19 50 -32 106 1 269 154 139 131 277 243 287 233 5 -5 -21 -73 -134 -347 -67
-163 -143 -380 -175 -500 -39 -147 -44 -285 -12 -340 27 -45 77 -70 141 -70
76 0 191 61 288 151 182 170 387 474 488 724 104 257 119 409 49 486 -25 28
-73 44 -98 33z"/>
<path d="M9215 4298 c-103 -37 -234 -228 -324 -474 -24 -64 -33 -78 -48 -75
-10 2 -43 5 -74 8 -105 9 -200 -63 -265 -201 -40 -84 -50 -145 -35 -204 14
-50 48 -76 97 -74 49 2 90 26 164 98 l65 62 0 -62 c1 -157 109 -178 245 -49
37 35 70 63 74 63 3 0 6 -10 6 -22 0 -37 45 -84 93 -98 103 -28 213 22 349
160 54 54 98 106 98 114 0 33 -39 15 -75 -35 -42 -56 -148 -145 -212 -178 -43
-21 -78 -26 -108 -15 -21 9 -45 56 -45 91 0 54 10 70 53 84 65 21 181 103 212
150 33 50 37 105 10 125 -26 19 -119 18 -162 -3 -71 -33 -140 -110 -184 -202
-60 -124 -60 -125 -110 -183 -57 -66 -110 -98 -133 -79 -25 21 -20 123 13 255
l30 116 73 81 c156 171 289 376 303 465 11 67 -42 107 -110 82z m59 -82 c-1
-21 -17 -69 -38 -109 -32 -64 -149 -229 -220 -312 l-26 -30 6 30 c13 61 97
257 136 318 46 71 117 149 133 144 5 -2 9 -21 9 -41z m192 -491 c10 -25 -15
-72 -61 -114 -44 -40 -139 -95 -156 -89 -23 8 86 166 136 198 36 24 73 26 81
5z m-641 -29 c13 -19 14 -32 5 -71 -33 -147 -215 -349 -256 -283 -13 21 -6 97
16 163 51 154 187 264 235 191z"/>
<path d="M4443 4242 c-7 -4 -28 -42 -47 -85 -35 -76 -50 -90 -96 -85 -8 0 -61
0 -116 0 -87 -2 -105 -5 -128 -23 -38 -30 -20 -45 29 -25 41 17 209 22 233 7
11 -6 5 -25 -26 -87 -174 -347 -251 -610 -213 -726 26 -80 120 -130 201 -108
56 15 59 30 6 30 -59 0 -74 7 -91 41 -50 96 22 354 198 705 l75 150 109 13
c220 26 346 60 360 96 13 35 -14 39 -79 11 -70 -29 -167 -51 -275 -61 -82 -8
-85 -5 -57 60 8 21 13 48 10 60 -8 29 -64 46 -93 27z"/>
<path d="M7845 3921 c-80 -20 -167 -90 -181 -147 -4 -14 -4 -50 -1 -80 5 -49
3 -58 -32 -111 -90 -139 -228 -273 -281 -273 -69 0 -51 99 59 318 57 114 57
132 -3 132 -26 0 -35 6 -50 35 -28 51 -90 73 -163 57 -118 -25 -220 -121 -306
-289 -32 -62 -78 -133 -107 -166 -56 -62 -131 -112 -155 -103 -34 13 -18 68
101 346 15 36 24 75 24 112 0 49 -3 59 -26 77 -32 25 -83 27 -126 5 -40 -21
-111 -86 -161 -149 -22 -27 -37 -41 -33 -30 22 58 29 115 18 140 -22 49 -112
42 -112 -9 0 -33 -64 -209 -95 -262 -37 -64 -165 -195 -209 -215 -109 -48
-101 68 20 298 60 115 60 133 0 133 -25 0 -34 7 -46 32 -36 77 -127 94 -233
44 -68 -33 -170 -138 -212 -219 -29 -55 -34 -59 -130 -107 -55 -28 -105 -50
-111 -50 -10 0 -107 137 -133 187 -16 30 -14 99 4 132 30 59 119 110 170 97
71 -18 75 -96 8 -167 -31 -34 -15 -46 30 -24 67 31 98 135 57 188 -62 78 -263
52 -345 -45 -44 -52 -58 -95 -52 -159 7 -64 5 -68 -86 -171 -103 -118 -228
-198 -310 -198 -18 0 -39 10 -58 30 -27 27 -30 35 -27 87 l3 57 60 24 c220 87
344 278 210 322 -114 37 -273 -70 -353 -237 -98 -208 -14 -357 183 -322 33 6
86 25 118 42 65 34 175 132 248 219 l47 57 40 -52 c57 -76 74 -104 64 -111 -4
-2 -35 -15 -67 -27 -151 -56 -235 -131 -235 -208 0 -74 48 -111 147 -111 78 0
146 26 205 79 70 62 91 109 91 199 l0 73 78 40 c43 21 82 39 86 39 5 0 9 -29
9 -63 2 -75 14 -101 57 -127 65 -40 144 -14 233 75 30 30 56 55 57 55 1 0 2
-22 2 -50 0 -43 5 -54 33 -82 28 -28 39 -33 81 -32 53 0 95 21 174 87 l48 39
-6 -34 c-6 -32 -4 -36 23 -47 46 -19 66 -7 91 57 37 91 87 178 150 261 91 120
189 201 220 182 18 -12 6 -50 -60 -190 -65 -136 -89 -207 -89 -258 0 -67 44
-113 107 -113 44 0 108 38 176 104 l65 64 7 -34 c15 -82 91 -114 179 -75 26
11 75 47 110 81 34 33 65 60 67 60 2 0 4 -27 4 -61 0 -56 2 -63 34 -91 31 -28
39 -30 83 -25 87 11 209 113 309 259 21 31 43 60 49 63 11 6 100 -125 100
-147 0 -7 -31 -25 -69 -41 -189 -76 -269 -193 -192 -279 25 -29 35 -32 94 -36
98 -6 169 19 233 83 64 64 89 131 80 214 l-7 57 58 23 c95 39 209 100 233 126
21 22 21 25 6 31 -11 4 -28 -1 -44 -15 -62 -49 -273 -142 -280 -123 -1 5 -26
43 -53 83 -67 97 -79 122 -79 164 0 89 96 176 177 160 67 -12 81 -90 28 -154
-32 -37 -31 -41 5 -41 38 0 75 37 91 89 31 104 -85 176 -226 142z m-538 -133
c36 -41 36 -46 -18 -141 -109 -192 -219 -310 -283 -305 -41 4 -50 42 -31 127
28 119 119 252 214 313 54 34 91 36 118 6z m-1396 2 c10 -6 26 -24 34 -39 14
-29 13 -32 -57 -156 -78 -137 -157 -233 -213 -260 -44 -20 -62 -15 -76 22 -35
93 84 330 206 411 51 34 74 38 106 22z m-1075 -45 c19 -49 -75 -159 -184 -214
-34 -17 -64 -31 -67 -31 -22 0 30 112 76 165 71 80 160 121 175 80z m2984
-410 c0 -119 -78 -214 -180 -218 -44 -1 -80 24 -80 56 0 59 73 143 165 187 88
43 95 41 95 -25z m-2620 -29 c0 -92 -49 -173 -125 -207 -77 -36 -135 -16 -135
47 0 72 66 144 174 188 85 35 86 35 86 -28z"/>
<path d="M3945 3821 c-16 -4 -43 -15 -60 -23 -30 -16 -154 -140 -188 -188 -22
-30 -19 -17 13 75 25 71 20 98 -19 115 -55 22 -64 11 -121 -148 -134 -378
-134 -382 -78 -410 39 -18 54 -7 78 61 45 124 103 224 189 326 53 62 146 141
167 141 33 0 3 -103 -51 -174 -43 -57 -25 -92 32 -63 36 20 106 93 127 134 9
18 16 52 16 77 0 36 -5 48 -26 65 -28 22 -33 23 -79 12z"/>
<path d="M10756 3056 c9 -63 -11 -110 -71 -171 -268 -267 -1030 -345 -2010
-204 -77 11 -293 45 -480 75 -912 147 -1002 160 -1320 190 -228 22 -753 25
-935 6 -302 -33 -576 -99 -760 -185 -230 -107 -387 -250 -365 -334 10 -40 35
-23 55 37 27 82 101 144 264 225 257 127 662 205 1066 205 405 0 882 -53 1610
-180 531 -92 960 -149 1281 -171 228 -15 654 -7 814 15 244 34 452 85 581 142
132 58 276 179 309 259 27 64 14 135 -25 135 -17 0 -19 -5 -14 -44z"/>
</g>
</svg>
